<?xml version="1.0" encoding="UTF-8"?>
<svg id="Capa_1" data-name="Capa 1" xmlns="http://www.w3.org/2000/svg" viewBox="0 0 1920 1080">
  <defs>
    <style>
      .cls-1 {
        fill: #fff;
      }
    </style>
  </defs>
  <g>
    <path class="cls-1" d="M717.33,666.15v-149.51h62.68c22.44,0,39.35,5.77,50.73,17.3,11.38,11.53,17.06,30.92,17.06,58.15,0,25.69-5.61,44.46-16.83,56.3-11.22,11.84-28.21,17.76-50.96,17.76h-62.68ZM748.67,642.01h26.93c8.82,0,16.25-1.35,22.29-4.06,6.04-2.71,10.56-7.66,13.58-14.86s4.53-17.53,4.53-30.99-1.39-23.76-4.18-30.88c-2.79-7.12-7.12-11.99-13-14.63-5.88-2.63-13.62-3.95-23.22-3.95h-26.93v99.36Z"/>
    <path class="cls-1" d="M922.32,668.47c-19.04,0-34.13-4.76-45.27-14.28-11.14-9.52-16.71-23.95-16.71-43.3,0-17.49,4.68-31.38,14.04-41.67,9.36-10.29,23.33-15.44,41.9-15.44,17.02,0,30.06,4.45,39.12,13.35,9.05,8.9,13.58,20.55,13.58,34.94v19.96h-79.63c1.7,8.82,5.76,14.86,12.19,18.11,6.42,3.25,15.51,4.88,27.28,4.88,5.88,0,11.88-.54,17.99-1.62,6.11-1.08,11.34-2.47,15.67-4.18v22.29c-5.11,2.32-11.07,4.06-17.88,5.22-6.81,1.16-14.24,1.74-22.29,1.74ZM889.36,602.78h52.23v-6.04c0-6.34-1.86-11.34-5.57-14.97-3.71-3.63-9.98-5.46-18.8-5.46-10.37,0-17.61,2.09-21.71,6.27-4.1,4.18-6.15,10.91-6.15,20.2Z"/>
    <path class="cls-1" d="M1012.17,666.15l-43.41-110.04h32.73l27.39,78.47,27.63-78.47h32.5l-43.18,110.04h-33.66Z"/>
    <path class="cls-1" d="M1108.51,666.15v-86.83h-16.48l2.79-23.22h45.04v110.04h-31.34ZM1105.96,535.92v-24.61h34.13v24.61h-34.13Z"/>
    <path class="cls-1" d="M1196.49,668.47c-6.96,0-13.43-1.28-19.38-3.83-5.96-2.55-10.76-6.34-14.39-11.38-3.64-5.03-5.46-11.34-5.46-18.92,0-10.83,3.83-19.5,11.49-26,7.66-6.5,19-9.75,34.01-9.75h32.5v-3.02c0-6.81-1.9-11.61-5.69-14.39-3.79-2.79-11.42-4.18-22.87-4.18-12.54,0-24.61,1.94-36.22,5.8v-22.05c5.11-2.01,11.34-3.67,18.69-4.99,7.35-1.31,15.36-1.97,24.03-1.97,16.56,0,29.37,3.37,38.42,10.1,9.05,6.73,13.58,17.53,13.58,32.39v69.88h-27.16l-1.62-9.98c-4.33,3.87-9.67,6.89-16.02,9.05-6.35,2.17-14.32,3.25-23.91,3.25ZM1205.08,647.81c6.96,0,13-1.16,18.11-3.48,5.11-2.32,9.13-5.26,12.07-8.82v-17.41h-31.8c-12.23,0-18.34,5.03-18.34,15.09s6.65,14.62,19.96,14.62Z"/>
    <path class="cls-1" d="M1329.51,668.47c-12.69,0-22.09-3.33-28.21-9.98-6.12-6.65-9.17-15.71-9.17-27.16v-51.07h-15.55v-24.14h15.55v-23.68l31.34-9.29v32.97h27.86l-1.86,24.14h-26v48.98c0,6.04,1.39,10.18,4.18,12.42,2.79,2.25,7.12,3.37,13,3.37,4.33,0,8.82-.77,13.46-2.32v21.59c-3.41,1.39-7.12,2.44-11.14,3.13-4.03.7-8.51,1.04-13.46,1.04Z"/>
    <path class="cls-1" d="M1365.5,666.15v-156.47h31.34v55.72c4.49-3.4,9.98-6.19,16.48-8.36,6.5-2.17,13.54-3.25,21.12-3.25,14.55,0,25.15,3.41,31.81,10.21,6.65,6.81,9.98,17.34,9.98,31.57v70.57h-31.34v-68.95c0-7.43-1.51-12.69-4.53-15.79-3.02-3.09-8.63-4.64-16.83-4.64-4.8,0-9.63,1.08-14.51,3.25-4.88,2.17-8.94,4.88-12.19,8.13v78h-31.34Z"/>
    <path class="cls-1" d="M1528.23,668.47c-6.96,0-13.43-1.28-19.38-3.83-5.96-2.55-10.76-6.34-14.39-11.38-3.64-5.03-5.46-11.34-5.46-18.92,0-10.83,3.83-19.5,11.49-26,7.66-6.5,19-9.75,34.01-9.75h32.5v-3.02c0-6.81-1.9-11.61-5.69-14.39-3.79-2.79-11.42-4.18-22.87-4.18-12.54,0-24.61,1.94-36.22,5.8v-22.05c5.11-2.01,11.34-3.67,18.69-4.99,7.35-1.31,15.36-1.97,24.03-1.97,16.56,0,29.37,3.37,38.42,10.1,9.05,6.73,13.58,17.53,13.58,32.39v69.88h-27.16l-1.62-9.98c-4.33,3.87-9.67,6.89-16.02,9.05-6.35,2.17-14.32,3.25-23.91,3.25ZM1536.82,647.81c6.96,0,13-1.16,18.11-3.48s9.13-5.26,12.07-8.82v-17.41h-31.8c-12.23,0-18.34,5.03-18.34,15.09s6.65,14.62,19.96,14.62Z"/>
    <path class="cls-1" d="M1617.61,666.15v-110.04h29.02l1.16,10.45c4.49-3.4,10.17-6.38,17.06-8.94,6.88-2.55,14.12-3.83,21.71-3.83,14.54,0,25.15,3.41,31.8,10.21,6.65,6.81,9.98,17.34,9.98,31.57v70.57h-31.34v-68.95c0-7.43-1.51-12.69-4.53-15.79-3.02-3.09-8.63-4.64-16.83-4.64-4.8,0-9.63,1.08-14.51,3.25-4.88,2.17-8.94,4.88-12.19,8.13v78h-31.34Z"/>
  </g>
  <g>
    <path class="cls-1" d="M514.91,625.28c1.26,2.68.81,6.27-.57,10.12-5.97,16.66-15.71,31.74-26.7,45.61-11.26,14.2-24.03,27.38-39.11,37.43-14.08,9.38-30,15.91-46.65,18.88-17.78,3.18-36.08,3.73-53.42,9.15-16.67,5.21-31.75,14.75-44.98,26.17-11.42,9.86-21.58,21.19-30.02,33.69-4.38,6.49-7.98,13.31-11.61,20.23-.81,1.54-6.76,12.67-8.15,7.22-10.54-41.21-4.54-84.82,16.74-121.65,21.03-36.39,54.98-64.43,93.59-80.57,46.01-19.24,95.58-18.67,144.04-10.62,3.68.61,5.83,2.18,6.85,4.35Z"/>
    <path class="cls-1" d="M584.57,758.71c-.57.36-1.14.71-1.71,1.06-59.9,36.7-131.41,38.68-194.44,8.76-1.19-.57-3.02-1.77-2.55-3.01s2.63-1.06,4.09-1.19c28.61-2.67,54.39-13.73,76.29-32.26,25.46-21.55,47.47-48.26,63.9-77.29,13.91-24.58,24.85-52.11,29.78-79.98.9-5.09,2.23-11.76,8.63-11.03,4.22.48,8.27,3.25,11.66,5.62,8.74,6.13,16.45,13.83,23.72,21.61,1.4,1.49,2.77,3,4.12,4.54,13.95,15.87,24.88,34.42,31.75,54.42,2.64,7.67,4.71,15.64,4.71,23.76,0,36.17-31.18,66.93-59.95,85Z"/>
    <path class="cls-1" d="M484.91,382.61s-.05,0-.07-.01c9-25.42,21.08-49.79,27.53-76.03.66-2.69-2.86-4.32-4.51-2.1-25.79,34.89-53.46,68.92-88.67,94.79-.51.37-1.04.75-1.66.85-1.48.24-2.76-1.29-2.84-2.79-.35-6.64,4.57-16.17,6.2-22.71,2.15-8.6,4.04-17.27,5.56-26,3.03-17.44,4.08-34.75,3.62-52.43v-.07c-.13-2.92-4.2-3.42-4.96-.6-8.64,32.23-23.85,62.5-41.3,90.8-8.04,13.05-17.58,25.15-25.46,38.16-7.16,11.83-15.99,23.9-29.34,29.07-4.31,1.67-9.17,2.68-12.29,6.1-1.84,2.01-2.83,4.63-3.78,7.18-4.11,10.99-7.13,24.77-13.76,34.35-4.47,6.45-10,12.62-15.7,18.01-5.73,5.41-12.52,11.04-20.29,13.12-4.01,1.07-17.65.66-17.82-6.13-.78-1.07-1.48-2.29-2.66-2.89-6.31-3.17-23.18,34.03-25.36,39.21-2.91,6.89-5.44,14.1-6.58,21.52-2.66,17.26,8.56,29.63,24.14,35.8,9.57,3.79,19.4,4.19,29.36,6.08,9.76,1.86,19.17,4.22,29.26,3.46.72-.05,1.46-.13,2.07-.51,1.38-.87,1.42-3.04.41-4.32-1.01-1.28-2.7-1.83-4.31-2.05-1.66-.22-3.56-.27-4.64-1.54-.61-.72-.82-1.69-1.01-2.61-.69-3.36-1.37-6.72-2.06-10.09-.14-.69-.28-1.42-.03-2.07.26-.7.9-1.17,1.51-1.6,28.64-19.87,66.59-12.68,99.1-11.25,2.27.1,3.53-2.61,1.96-4.27-5.4-5.73-13.46-15.64-2.12-22.32,16.61-9.78,51.42.59,66.72,4.04,2.35.54,4.04-2.23,2.48-4.09-14.39-17.25.28-36.97,22.41-41.68.18-.04.34-.04.51-.07,2.28-.36,10.83-1.74,20.57-2.46,12.14-.9,25.39,1.06,37.31,3.22,12.13,2.2,24.04,5.69,35.3,10.73,30.21,13.53,54.39,38.63,69.92,67.57,7.2,13.41,12.81,27.61,17.6,42.03,2.09,6.28,5.54-1.59,6.46-4.32,1.6-4.75,2.67-9.69,3.67-14.6,1.69-8.32,3.19-16.78,4.04-25.24.01-.13.03-.27.04-.4,3.4-41.4-7.87-83.61-30.06-118.58-27.79-43.78-71.76-76.32-121.02-92.01-11.63-3.7-23.43-6.01-35.4-8.26ZM266.29,563.69c-7.86,0-13.46,3.14-20.2,6.63-2.13,1.1-4.48-1.12-3.47-3.31,3.58-7.74,15.46-20.53,22.6-17.35.72.32,1.21.96,1.41,1.72l2.19,9.18c.4,1.62-.86,3.13-2.52,3.13ZM371.19,475.82c-9.32,19.39-20.5,28.89-42.55,33.88-1.64.38-3.29-.96-3.08-2.61.49-3.77,5.18-5.86,6.81-8.76,3.44-6.1,3.55-11.55,10.52-16.21,6.45-4.32,16.76-7.42,25.35-9.83,2.08-.59,3.91,1.58,2.97,3.54Z"/>
  </g>
</svg>