<?xml version="1.0" encoding="UTF-8"?>
<svg id="Capa_1" data-name="Capa 1" xmlns="http://www.w3.org/2000/svg" viewBox="0 0 1920 1080">
  <defs>
    <style>
      .cls-1 {
        fill: #110941;
      }
    </style>
  </defs>
  <path class="cls-1" d="M989.49,646.22c1.99,4.24,1.28,9.93-.91,16.04-9.46,26.4-24.89,50.3-42.32,72.27-17.84,22.5-38.09,43.39-61.98,59.31-22.31,14.87-47.54,25.21-73.93,29.92-28.18,5.03-57.18,5.92-84.66,14.5-26.42,8.25-50.32,23.38-71.28,41.47-18.1,15.62-34.2,33.58-47.58,53.39-6.95,10.29-12.64,21.09-18.4,32.06-1.28,2.44-10.71,20.08-12.92,11.45-16.71-65.31-7.19-134.43,26.53-192.79,33.32-57.67,87.14-102.11,148.31-127.69,72.92-30.48,151.48-29.58,228.28-16.83,5.84.97,9.24,3.45,10.85,6.89Z"/>
  <path class="cls-1" d="M1099.89,857.69c-.91.57-1.81,1.13-2.72,1.68-94.92,58.16-208.26,61.3-308.15,13.89-1.89-.9-4.79-2.81-4.04-4.77.74-1.94,4.17-1.67,6.48-1.89,45.34-4.24,86.2-21.75,120.91-51.12,40.36-34.15,75.23-76.49,101.27-122.49,22.04-38.95,39.38-82.58,47.2-126.76,1.43-8.07,3.54-18.64,13.68-17.48,6.69.76,13.11,5.15,18.47,8.91,13.85,9.71,26.07,21.92,37.59,34.25,2.21,2.37,4.4,4.76,6.54,7.19,22.11,25.15,39.43,54.55,50.32,86.24,4.18,12.15,7.47,24.79,7.47,37.65,0,57.33-49.41,106.07-95.01,134.71Z"/>
  <path class="cls-1" d="M941.96,261.63s-.07-.01-.11-.02c14.27-40.28,33.41-78.9,43.63-120.49,1.04-4.27-4.54-6.85-7.14-3.33-40.88,55.29-84.72,109.23-140.52,150.22-.8.59-1.65,1.19-2.63,1.35-2.34.38-4.37-2.05-4.49-4.42-.56-10.52,7.24-25.63,9.83-35.99,3.41-13.63,6.4-27.37,8.81-41.21,4.8-27.65,6.47-55.07,5.74-83.08v-.11c-.21-4.63-6.66-5.42-7.87-.95-13.69,51.08-37.8,99.05-65.45,143.9-12.74,20.68-27.86,39.86-40.35,60.47-11.35,18.74-25.33,37.87-46.51,46.07-6.83,2.64-14.53,4.25-19.47,9.66-2.91,3.19-4.49,7.34-6,11.38-6.52,17.41-11.3,39.25-21.81,54.44-7.08,10.23-15.85,20-24.88,28.54-9.08,8.57-19.84,17.49-32.16,20.79-6.35,1.7-27.97,1.04-28.25-9.71-1.23-1.7-2.34-3.63-4.22-4.58-10-5.03-36.73,53.93-40.2,62.15-4.61,10.92-8.61,22.34-10.42,34.1-4.21,27.35,13.56,46.95,38.26,56.74,15.17,6.01,30.75,6.64,46.54,9.64,15.47,2.94,30.38,6.69,46.37,5.49,1.13-.09,2.32-.2,3.28-.81,2.19-1.37,2.24-4.81.65-6.85-1.6-2.04-4.27-2.9-6.84-3.24-2.63-.35-5.64-.43-7.36-2.45-.97-1.14-1.3-2.67-1.6-4.14-1.09-5.33-2.18-10.66-3.27-15.98-.22-1.09-.44-2.24-.05-3.28.41-1.11,1.42-1.86,2.39-2.53,45.38-31.49,105.54-20.1,157.05-17.83,3.6.16,5.6-4.14,3.11-6.77-8.55-9.08-21.33-24.79-3.37-35.37,26.32-15.5,81.48.93,105.74,6.4,3.73.86,6.4-3.54,3.93-6.48-22.8-27.33.44-58.59,35.51-66.05.28-.06.53-.06.81-.11,3.61-.56,17.17-2.76,32.6-3.9,19.24-1.42,40.24,1.67,59.13,5.1,19.22,3.49,38.09,9.02,55.94,17.01,47.88,21.45,86.2,61.23,110.81,107.08,11.4,21.25,20.3,43.75,27.9,66.61,3.31,9.95,8.78-2.52,10.24-6.85,2.54-7.53,4.23-15.36,5.81-23.14,2.67-13.19,5.06-26.59,6.4-39.99.02-.21.04-.43.06-.64,5.39-65.62-12.47-132.5-47.64-187.92-44.04-69.39-113.72-120.96-191.79-145.81-18.43-5.87-37.12-9.53-56.11-13.09ZM595.49,548.61c-12.45-.01-21.34,4.97-32.01,10.5-3.38,1.75-7.1-1.78-5.5-5.25,5.67-12.26,24.5-32.53,35.81-27.49,1.14.5,1.92,1.52,2.24,2.72l3.47,14.55c.63,2.57-1.36,4.95-4,4.97ZM761.74,409.36c-14.76,30.73-32.5,45.78-67.44,53.69-2.6.6-5.21-1.52-4.89-4.14.77-5.98,8.22-9.29,10.79-13.88,5.45-9.67,5.62-18.3,16.67-25.7,10.22-6.84,26.56-11.76,40.17-15.58,3.29-.93,6.19,2.51,4.7,5.61Z"/>
</svg>