<?xml version="1.0" encoding="UTF-8"?>
<svg id="Capa_1" data-name="Capa 1" xmlns="http://www.w3.org/2000/svg" viewBox="0 0 1920 1080">
  <defs>
    <style>
      .cls-1 {
        fill: #0f0f11;
      }
    </style>
  </defs>
  <path class="cls-1" d="M993.18,636.16c1.98,4.21,1.27,9.87-.9,15.94-9.41,26.24-24.75,50.01-42.07,71.85-17.74,22.37-37.87,43.14-61.62,58.97-22.18,14.78-47.27,25.06-73.5,29.75-28.01,5-56.85,5.88-84.16,14.41-26.27,8.2-50.03,23.25-70.86,41.23-17.99,15.53-34,33.38-47.3,53.08-6.91,10.23-12.57,20.97-18.29,31.87-1.27,2.42-10.65,19.97-12.85,11.38-16.61-64.93-7.15-133.65,26.38-191.67,33.13-57.33,86.63-101.52,147.45-126.94,72.49-30.31,150.59-29.41,226.95-16.74,5.8.96,9.18,3.43,10.79,6.85Z"/>
  <path class="cls-1" d="M1102.94,846.39c-.9.57-1.8,1.12-2.7,1.68-94.37,57.82-207.05,60.94-306.36,13.8-1.88-.89-4.77-2.8-4.02-4.74s4.14-1.66,6.45-1.88c45.08-4.21,85.69-21.63,120.2-50.83,40.12-33.95,74.79-76.04,100.68-121.77,21.91-38.72,39.15-82.1,46.92-126.02,1.42-8.03,3.52-18.53,13.6-17.38,6.65.76,13.04,5.12,18.37,8.85,13.77,9.65,25.92,21.79,37.37,34.05,2.2,2.35,4.37,4.73,6.5,7.15,21.98,25.01,39.2,54.24,50.03,85.74,4.15,12.08,7.42,24.65,7.43,37.43,0,57-49.12,105.45-94.46,133.92Z"/>
  <path class="cls-1" d="M945.92,253.81s-.07-.01-.11-.02c14.19-40.05,33.21-78.44,43.38-119.78,1.03-4.25-4.51-6.81-7.1-3.31-40.64,54.97-84.23,108.6-139.7,149.35-.8.59-1.64,1.19-2.62,1.35-2.33.37-4.34-2.04-4.47-4.39-.55-10.46,7.2-25.48,9.77-35.78,3.39-13.55,6.36-27.21,8.75-40.97,4.77-27.48,6.43-54.75,5.7-82.6v-.11c-.21-4.6-6.62-5.39-7.82-.94-13.61,50.78-37.58,98.47-65.07,143.06-12.67,20.56-27.7,39.62-40.11,60.12-11.28,18.63-25.19,37.65-46.23,45.8-6.79,2.63-14.45,4.23-19.36,9.61-2.89,3.17-4.46,7.29-5.96,11.31-6.48,17.31-11.24,39.03-21.68,54.12-7.04,10.17-15.76,19.88-24.74,28.37-9.02,8.52-19.73,17.39-31.97,20.67-6.32,1.69-27.8,1.04-28.08-9.66-1.23-1.69-2.33-3.61-4.19-4.55-9.94-5-36.52,53.62-39.96,61.78-4.58,10.86-8.56,22.21-10.36,33.9-4.19,27.19,13.49,46.68,38.04,56.41,15.09,5.98,30.57,6.6,46.27,9.58,15.38,2.92,30.2,6.65,46.1,5.45,1.13-.09,2.3-.2,3.26-.8,2.18-1.36,2.23-4.79.64-6.81-1.59-2.02-4.25-2.88-6.8-3.23-2.61-.35-5.61-.43-7.32-2.43-.97-1.13-1.3-2.66-1.59-4.11-1.08-5.3-2.17-10.59-3.25-15.89-.22-1.08-.44-2.23-.05-3.26.41-1.1,1.41-1.85,2.37-2.52,45.12-31.31,104.92-19.98,156.13-17.72,3.58.16,5.56-4.11,3.09-6.73-8.5-9.02-21.2-24.64-3.35-35.17,26.16-15.41,81.01.93,105.12,6.36,3.71.85,6.36-3.52,3.91-6.44-22.67-27.18.44-58.25,35.3-65.67.28-.06.53-.06.81-.1,3.59-.56,17.07-2.74,32.41-3.87,19.13-1.41,40,1.66,58.78,5.07,19.11,3.47,37.87,8.97,55.61,16.91,47.6,21.32,85.7,60.87,110.16,106.45,11.34,21.12,20.18,43.5,27.74,66.22,3.29,9.9,8.73-2.51,10.18-6.81,2.52-7.49,4.21-15.27,5.78-23.01,2.66-13.11,5.03-26.44,6.36-39.76.02-.21.04-.42.06-.64,5.36-65.23-12.4-131.73-47.37-186.83-43.78-68.98-113.06-120.25-190.67-144.96-18.32-5.83-36.91-9.47-55.78-13.01ZM601.47,539.12c-12.38-.01-21.21,4.94-31.83,10.44-3.36,1.74-7.06-1.77-5.47-5.22,5.63-12.19,24.35-32.34,35.6-27.33,1.13.5,1.91,1.51,2.22,2.71l3.45,14.46c.63,2.55-1.35,4.92-3.98,4.94ZM766.75,400.68c-14.68,30.55-32.31,45.51-67.05,53.38-2.58.6-5.18-1.51-4.86-4.12.77-5.94,8.17-9.24,10.73-13.8,5.42-9.61,5.59-18.19,16.57-25.55,10.16-6.8,26.4-11.7,39.93-15.49,3.27-.92,6.16,2.49,4.67,5.58Z"/>
</svg>