<?xml version="1.0" encoding="UTF-8"?>
<svg id="Capa_1" data-name="Capa 1" xmlns="http://www.w3.org/2000/svg" viewBox="0 0 1920 1080">
  <defs>
    <style>
      .cls-1 {
        fill: #f7f7f7;
      }
    </style>
  </defs>
  <g>
    <g>
      <path class="cls-1" d="M688.33,594.15v-149.51h62.68c22.44,0,39.35,5.77,50.73,17.3,11.38,11.53,17.06,30.92,17.06,58.15,0,25.69-5.61,44.46-16.83,56.3-11.22,11.84-28.21,17.76-50.96,17.76h-62.68ZM719.67,570.01h26.93c8.82,0,16.25-1.35,22.29-4.06,6.04-2.71,10.56-7.66,13.58-14.86s4.53-17.53,4.53-30.99-1.39-23.76-4.18-30.88c-2.79-7.12-7.12-11.99-13-14.63-5.88-2.63-13.62-3.95-23.22-3.95h-26.93v99.36Z"/>
      <path class="cls-1" d="M893.32,596.47c-19.04,0-34.13-4.76-45.27-14.28-11.14-9.52-16.71-23.95-16.71-43.3,0-17.49,4.68-31.38,14.04-41.67,9.36-10.29,23.33-15.44,41.9-15.44,17.02,0,30.06,4.45,39.12,13.35,9.05,8.9,13.58,20.55,13.58,34.94v19.96h-79.63c1.7,8.82,5.76,14.86,12.19,18.11,6.42,3.25,15.51,4.88,27.28,4.88,5.88,0,11.88-.54,17.99-1.62,6.11-1.08,11.34-2.47,15.67-4.18v22.29c-5.11,2.32-11.07,4.06-17.88,5.22-6.81,1.16-14.24,1.74-22.29,1.74ZM860.36,530.78h52.23v-6.04c0-6.34-1.86-11.34-5.57-14.97-3.71-3.63-9.98-5.46-18.8-5.46-10.37,0-17.61,2.09-21.71,6.27-4.1,4.18-6.15,10.91-6.15,20.2Z"/>
      <path class="cls-1" d="M983.17,594.15l-43.41-110.04h32.73l27.39,78.47,27.63-78.47h32.5l-43.18,110.04h-33.66Z"/>
      <path class="cls-1" d="M1079.51,594.15v-86.83h-16.48l2.79-23.22h45.04v110.04h-31.34ZM1076.96,463.92v-24.61h34.13v24.61h-34.13Z"/>
      <path class="cls-1" d="M1167.49,596.47c-6.96,0-13.43-1.28-19.38-3.83-5.96-2.55-10.76-6.34-14.39-11.38-3.64-5.03-5.46-11.34-5.46-18.92,0-10.83,3.83-19.5,11.49-26,7.66-6.5,19-9.75,34.01-9.75h32.5v-3.02c0-6.81-1.9-11.61-5.69-14.39-3.79-2.79-11.42-4.18-22.87-4.18-12.54,0-24.61,1.94-36.22,5.8v-22.05c5.11-2.01,11.34-3.67,18.69-4.99,7.35-1.31,15.36-1.97,24.03-1.97,16.56,0,29.37,3.37,38.42,10.1,9.05,6.73,13.58,17.53,13.58,32.39v69.88h-27.16l-1.62-9.98c-4.33,3.87-9.67,6.89-16.02,9.05-6.35,2.17-14.32,3.25-23.91,3.25ZM1176.08,575.81c6.96,0,13-1.16,18.11-3.48,5.11-2.32,9.13-5.26,12.07-8.82v-17.41h-31.8c-12.23,0-18.34,5.03-18.34,15.09s6.65,14.62,19.96,14.62Z"/>
      <path class="cls-1" d="M1300.51,596.47c-12.69,0-22.09-3.33-28.21-9.98-6.12-6.65-9.17-15.71-9.17-27.16v-51.07h-15.55v-24.14h15.55v-23.68l31.34-9.29v32.97h27.86l-1.86,24.14h-26v48.98c0,6.04,1.39,10.18,4.18,12.42,2.79,2.25,7.12,3.37,13,3.37,4.33,0,8.82-.77,13.46-2.32v21.59c-3.41,1.39-7.12,2.44-11.14,3.13-4.03.7-8.51,1.04-13.46,1.04Z"/>
      <path class="cls-1" d="M1336.5,594.15v-156.47h31.34v55.72c4.49-3.4,9.98-6.19,16.48-8.36,6.5-2.17,13.54-3.25,21.12-3.25,14.55,0,25.15,3.41,31.81,10.21,6.65,6.81,9.98,17.34,9.98,31.57v70.57h-31.34v-68.95c0-7.43-1.51-12.69-4.53-15.79-3.02-3.09-8.63-4.64-16.83-4.64-4.8,0-9.63,1.08-14.51,3.25-4.88,2.17-8.94,4.88-12.19,8.13v78h-31.34Z"/>
      <path class="cls-1" d="M1499.23,596.47c-6.96,0-13.43-1.28-19.38-3.83-5.96-2.55-10.76-6.34-14.39-11.38-3.64-5.03-5.46-11.34-5.46-18.92,0-10.83,3.83-19.5,11.49-26,7.66-6.5,19-9.75,34.01-9.75h32.5v-3.02c0-6.81-1.9-11.61-5.69-14.39-3.79-2.79-11.42-4.18-22.87-4.18-12.54,0-24.61,1.94-36.22,5.8v-22.05c5.11-2.01,11.34-3.67,18.69-4.99,7.35-1.31,15.36-1.97,24.03-1.97,16.56,0,29.37,3.37,38.42,10.1,9.05,6.73,13.58,17.53,13.58,32.39v69.88h-27.16l-1.62-9.98c-4.33,3.87-9.67,6.89-16.02,9.05-6.35,2.17-14.32,3.25-23.91,3.25ZM1507.82,575.81c6.96,0,13-1.16,18.11-3.48s9.13-5.26,12.07-8.82v-17.41h-31.8c-12.23,0-18.34,5.03-18.34,15.09s6.65,14.62,19.96,14.62Z"/>
      <path class="cls-1" d="M1588.61,594.15v-110.04h29.02l1.16,10.45c4.49-3.4,10.17-6.38,17.06-8.94,6.88-2.55,14.12-3.83,21.71-3.83,14.54,0,25.15,3.41,31.8,10.21,6.65,6.81,9.98,17.34,9.98,31.57v70.57h-31.34v-68.95c0-7.43-1.51-12.69-4.53-15.79-3.02-3.09-8.63-4.64-16.83-4.64-4.8,0-9.63,1.08-14.51,3.25-4.88,2.17-8.94,4.88-12.19,8.13v78h-31.34Z"/>
    </g>
    <g>
      <path class="cls-1" d="M485.91,553.28c1.26,2.68.81,6.27-.57,10.12-5.97,16.66-15.71,31.74-26.7,45.61-11.26,14.2-24.03,27.38-39.11,37.43-14.08,9.38-30,15.91-46.65,18.88-17.78,3.18-36.08,3.73-53.42,9.15-16.67,5.21-31.75,14.75-44.98,26.17-11.42,9.86-21.58,21.19-30.02,33.69-4.38,6.49-7.98,13.31-11.61,20.23-.81,1.54-6.76,12.67-8.15,7.22-10.54-41.21-4.54-84.82,16.74-121.65,21.03-36.39,54.98-64.43,93.59-80.57,46.01-19.24,95.58-18.67,144.04-10.62,3.68.61,5.83,2.18,6.85,4.35Z"/>
      <path class="cls-1" d="M555.57,686.71c-.57.36-1.14.71-1.71,1.06-59.9,36.7-131.41,38.68-194.44,8.76-1.19-.57-3.02-1.77-2.55-3.01s2.63-1.06,4.09-1.19c28.61-2.67,54.39-13.73,76.29-32.26,25.46-21.55,47.47-48.26,63.9-77.29,13.91-24.58,24.85-52.11,29.78-79.98.9-5.09,2.23-11.76,8.63-11.03,4.22.48,8.27,3.25,11.66,5.62,8.74,6.13,16.45,13.83,23.72,21.61,1.4,1.49,2.77,3,4.12,4.54,13.95,15.87,24.88,34.42,31.75,54.42,2.64,7.67,4.71,15.64,4.71,23.76,0,36.17-31.18,66.93-59.95,85Z"/>
      <path class="cls-1" d="M455.91,310.61s-.05,0-.07-.01c9-25.42,21.08-49.79,27.53-76.03.66-2.69-2.86-4.32-4.51-2.1-25.79,34.89-53.46,68.92-88.67,94.79-.51.37-1.04.75-1.66.85-1.48.24-2.76-1.29-2.84-2.79-.35-6.64,4.57-16.17,6.2-22.71,2.15-8.6,4.04-17.27,5.56-26,3.03-17.44,4.08-34.75,3.62-52.43v-.07c-.13-2.92-4.2-3.42-4.96-.6-8.64,32.23-23.85,62.5-41.3,90.8-8.04,13.05-17.58,25.15-25.46,38.16-7.16,11.83-15.99,23.9-29.34,29.07-4.31,1.67-9.17,2.68-12.29,6.1-1.84,2.01-2.83,4.63-3.78,7.18-4.11,10.99-7.13,24.77-13.76,34.35-4.47,6.45-10,12.62-15.7,18.01-5.73,5.41-12.52,11.04-20.29,13.12-4.01,1.07-17.65.66-17.82-6.13-.78-1.07-1.48-2.29-2.66-2.89-6.31-3.17-23.18,34.03-25.36,39.21-2.91,6.89-5.44,14.1-6.58,21.52-2.66,17.26,8.56,29.63,24.14,35.8,9.57,3.79,19.4,4.19,29.36,6.08,9.76,1.86,19.17,4.22,29.26,3.46.72-.05,1.46-.13,2.07-.51,1.38-.87,1.42-3.04.41-4.32-1.01-1.28-2.7-1.83-4.31-2.05-1.66-.22-3.56-.27-4.64-1.54-.61-.72-.82-1.69-1.01-2.61-.69-3.36-1.37-6.72-2.06-10.09-.14-.69-.28-1.42-.03-2.07.26-.7.9-1.17,1.51-1.6,28.64-19.87,66.59-12.68,99.1-11.25,2.27.1,3.53-2.61,1.96-4.27-5.4-5.73-13.46-15.64-2.12-22.32,16.61-9.78,51.42.59,66.72,4.04,2.35.54,4.04-2.23,2.48-4.09-14.39-17.25.28-36.97,22.41-41.68.18-.04.34-.04.51-.07,2.28-.36,10.83-1.74,20.57-2.46,12.14-.9,25.39,1.06,37.31,3.22,12.13,2.2,24.04,5.69,35.3,10.73,30.21,13.53,54.39,38.63,69.92,67.57,7.2,13.41,12.81,27.61,17.6,42.03,2.09,6.28,5.54-1.59,6.46-4.32,1.6-4.75,2.67-9.69,3.67-14.6,1.69-8.32,3.19-16.78,4.04-25.24.01-.13.03-.27.04-.4,3.4-41.4-7.87-83.61-30.06-118.58-27.79-43.78-71.76-76.32-121.02-92.01-11.63-3.7-23.43-6.01-35.4-8.26ZM237.29,491.69c-7.86,0-13.46,3.14-20.2,6.63-2.13,1.1-4.48-1.12-3.47-3.31,3.58-7.74,15.46-20.53,22.6-17.35.72.32,1.21.96,1.41,1.72l2.19,9.18c.4,1.62-.86,3.13-2.52,3.13ZM342.19,403.82c-9.32,19.39-20.5,28.89-42.55,33.88-1.64.38-3.29-.96-3.08-2.61.49-3.77,5.18-5.86,6.81-8.76,3.44-6.1,3.55-11.55,10.52-16.21,6.45-4.32,16.76-7.42,25.35-9.83,2.08-.59,3.91,1.58,2.97,3.54Z"/>
    </g>
  </g>
  <g>
    <path class="cls-1" d="M1009.39,650.4c0,2.73-.99,4.87-2.96,6.43-1.97,1.55-4.7,2.33-8.17,2.33s-6.31-.54-8.52-1.62v-4.74c1.4.66,2.89,1.18,4.46,1.55,1.57.38,3.04.57,4.4.57,1.99,0,3.45-.38,4.4-1.13.95-.76,1.42-1.77,1.42-3.04,0-1.15-.43-2.12-1.3-2.92-.87-.8-2.66-1.74-5.38-2.83-2.8-1.13-4.77-2.43-5.92-3.88-1.15-1.46-1.72-3.21-1.72-5.25,0-2.56.91-4.58,2.73-6.05,1.82-1.47,4.26-2.2,7.33-2.2s5.86.64,8.78,1.93l-1.6,4.09c-2.73-1.15-5.17-1.72-7.31-1.72-1.62,0-2.86.35-3.7,1.06s-1.26,1.64-1.26,2.8c0,.8.17,1.48.5,2.05.34.57.89,1.1,1.66,1.61.77.5,2.16,1.17,4.16,1.99,2.25.94,3.91,1.81,4.96,2.62s1.82,1.73,2.31,2.75c.49,1.02.73,2.23.73,3.61Z"/>
    <path class="cls-1" d="M1035.4,647.08c0,3.79-.97,6.75-2.92,8.88-1.95,2.13-4.65,3.19-8.13,3.19-2.17,0-4.09-.49-5.75-1.47-1.67-.98-2.95-2.39-3.84-4.22-.9-1.83-1.34-3.96-1.34-6.38,0-3.77.97-6.71,2.9-8.82,1.93-2.11,4.65-3.17,8.17-3.17s6.02,1.08,7.98,3.24c1.96,2.16,2.94,5.08,2.94,8.75ZM1018.5,647.08c0,5.36,1.98,8.04,5.94,8.04s5.88-2.68,5.88-8.04-1.97-7.96-5.92-7.96c-2.07,0-3.57.69-4.5,2.06-.93,1.37-1.4,3.34-1.4,5.9Z"/>
    <path class="cls-1" d="M1052.73,639.25h-5.67v19.48h-4.96v-19.48h-3.82v-2.31l3.82-1.51v-1.51c0-2.74.64-4.78,1.93-6.1,1.29-1.32,3.25-1.98,5.9-1.98,1.74,0,3.44.29,5.12.86l-1.3,3.74c-1.22-.39-2.38-.59-3.49-.59s-1.94.35-2.45,1.04c-.51.69-.77,1.73-.77,3.12v1.51h5.67v3.74Z"/>
    <path class="cls-1" d="M1065.32,655.16c1.2,0,2.41-.19,3.61-.57v3.72c-.55.24-1.25.44-2.11.6-.86.16-1.75.24-2.68.24-4.68,0-7.01-2.46-7.01-7.39v-12.51h-3.17v-2.18l3.4-1.81,1.68-4.91h3.04v5.17h6.61v3.74h-6.61v12.43c0,1.19.3,2.07.89,2.63.59.57,1.38.85,2.34.85Z"/>
    <path class="cls-1" d="M1092.62,658.73l-3-10.83c-.36-1.15-1.02-3.81-1.97-8h-.19c-.81,3.78-1.46,6.46-1.93,8.04l-3.09,10.79h-5.46l-6.51-23.22h5.04l2.96,11.44c.67,2.83,1.15,5.25,1.43,7.27h.13c.14-1.02.35-2.19.64-3.52.29-1.32.54-2.31.75-2.97l3.53-12.22h5.42l3.42,12.22c.21.69.47,1.74.79,3.15.32,1.41.5,2.51.56,3.3h.17c.21-1.72.7-4.13,1.47-7.22l3-11.44h4.96l-6.55,23.22h-5.54Z"/>
    <path class="cls-1" d="M1123.23,658.73l-.99-3.23h-.17c-1.12,1.41-2.25,2.38-3.38,2.89s-2.59.77-4.37.77c-2.28,0-4.06-.62-5.34-1.85-1.28-1.23-1.92-2.97-1.92-5.23,0-2.39.89-4.2,2.67-5.42,1.78-1.22,4.49-1.88,8.13-2l4.01-.13v-1.24c0-1.48-.35-2.59-1.04-3.33-.69-.74-1.77-1.1-3.22-1.1-1.19,0-2.33.17-3.42.52-1.09.35-2.14.76-3.15,1.24l-1.6-3.53c1.26-.66,2.64-1.16,4.14-1.5,1.5-.34,2.91-.51,4.24-.51,2.95,0,5.18.64,6.69,1.93,1.5,1.29,2.26,3.31,2.26,6.07v15.64h-3.53ZM1115.88,655.37c1.79,0,3.23-.5,4.31-1.5,1.08-1,1.63-2.4,1.63-4.21v-2.02l-2.98.13c-2.32.08-4.01.47-5.07,1.17-1.06.69-1.58,1.75-1.58,3.18,0,1.04.31,1.84.92,2.4.62.57,1.54.85,2.77.85Z"/>
    <path class="cls-1" d="M1145.42,635.09c.99,0,1.81.07,2.46.21l-.48,4.6c-.7-.17-1.43-.25-2.18-.25-1.97,0-3.57.64-4.8,1.93-1.23,1.29-1.84,2.96-1.84,5.02v12.14h-4.93v-23.22h3.86l.65,4.09h.25c.77-1.39,1.77-2.49,3.01-3.3,1.24-.81,2.57-1.22,4-1.22Z"/>
    <path class="cls-1" d="M1162.33,659.15c-3.61,0-6.44-1.05-8.47-3.16-2.04-2.11-3.05-5.01-3.05-8.7s.94-6.77,2.83-8.94c1.89-2.17,4.49-3.25,7.79-3.25,3.07,0,5.49.93,7.26,2.79,1.78,1.86,2.67,4.42,2.67,7.69v2.67h-15.47c.07,2.25.68,3.99,1.83,5.2,1.15,1.21,2.76,1.82,4.85,1.82,1.37,0,2.65-.13,3.83-.39,1.18-.26,2.45-.69,3.81-1.29v4.01c-1.2.57-2.42.98-3.65,1.22-1.23.24-2.64.36-4.22.36ZM1161.42,638.83c-1.57,0-2.82.5-3.77,1.49-.95.99-1.51,2.44-1.69,4.35h10.54c-.03-1.92-.49-3.37-1.39-4.36-.9-.99-2.13-1.48-3.7-1.48Z"/>
    <path class="cls-1" d="M1197.49,659.15c-3.51,0-6.18-1.03-8.01-3.08-1.83-2.05-2.74-4.99-2.74-8.83s.96-6.91,2.87-9.01c1.91-2.1,4.67-3.15,8.28-3.15,2.45,0,4.65.46,6.61,1.36l-1.49,3.97c-2.09-.81-3.81-1.22-5.17-1.22-4.02,0-6.03,2.67-6.03,8,0,2.6.5,4.56,1.5,5.87s2.47,1.96,4.4,1.96c2.2,0,4.28-.55,6.24-1.64v4.3c-.88.52-1.82.89-2.82,1.11s-2.21.34-3.64.34Z"/>
    <path class="cls-1" d="M1230.02,647.08c0,3.79-.97,6.75-2.92,8.88s-4.65,3.19-8.13,3.19c-2.17,0-4.09-.49-5.75-1.47-1.67-.98-2.95-2.39-3.84-4.22-.9-1.83-1.34-3.96-1.34-6.38,0-3.77.97-6.71,2.9-8.82,1.93-2.11,4.65-3.17,8.17-3.17s6.02,1.08,7.98,3.24c1.96,2.16,2.94,5.08,2.94,8.75ZM1213.12,647.08c0,5.36,1.98,8.04,5.94,8.04s5.88-2.68,5.88-8.04-1.97-7.96-5.92-7.96c-2.07,0-3.57.69-4.5,2.06-.93,1.37-1.4,3.34-1.4,5.9Z"/>
    <path class="cls-1" d="M1255.25,658.73h-4.96v-14.32c0-1.78-.34-3.1-1.01-3.98s-1.72-1.31-3.15-1.31c-1.9,0-3.3.62-4.19,1.86-.89,1.24-1.33,3.3-1.33,6.18v11.57h-4.93v-23.22h3.86l.69,3.04h.25c.64-1.11,1.58-1.96,2.8-2.56,1.22-.6,2.57-.9,4.04-.9,3.57,0,5.94,1.22,7.1,3.65h.34c.69-1.15,1.65-2.04,2.9-2.69,1.25-.64,2.67-.97,4.28-.97,2.77,0,4.79.7,6.06,2.1s1.9,3.53,1.9,6.4v15.14h-4.93v-14.32c0-1.78-.34-3.1-1.02-3.98-.68-.88-1.73-1.31-3.16-1.31-1.92,0-3.32.6-4.21,1.79-.89,1.2-1.33,3.03-1.33,5.51v12.3Z"/>
    <path class="cls-1" d="M1288.58,659.15c-2.94,0-5.22-1.06-6.85-3.17h-.29c.2,1.96.29,3.15.29,3.57v9.51h-4.93v-33.55h3.99c.11.43.34,1.47.69,3.11h.25c1.54-2.35,3.85-3.53,6.93-3.53,2.9,0,5.15,1.05,6.77,3.15,1.62,2.1,2.42,5.05,2.42,8.84s-.82,6.75-2.47,8.88-3.92,3.19-6.81,3.19ZM1287.38,639.12c-1.96,0-3.39.57-4.29,1.72-.9,1.15-1.35,2.98-1.35,5.5v.74c0,2.83.45,4.87,1.34,6.14.9,1.27,2.36,1.9,4.39,1.9,1.71,0,3.02-.7,3.95-2.1s1.39-3.39,1.39-5.98-.46-4.57-1.38-5.91c-.92-1.34-2.26-2-4.04-2Z"/>
    <path class="cls-1" d="M1318.12,658.73l-.99-3.23h-.17c-1.12,1.41-2.25,2.38-3.38,2.89s-2.59.77-4.37.77c-2.28,0-4.06-.62-5.34-1.85-1.28-1.23-1.92-2.97-1.92-5.23,0-2.39.89-4.2,2.67-5.42,1.78-1.22,4.49-1.88,8.12-2l4.01-.13v-1.24c0-1.48-.35-2.59-1.04-3.33-.69-.74-1.77-1.1-3.22-1.1-1.19,0-2.33.17-3.42.52-1.09.35-2.14.76-3.15,1.24l-1.6-3.53c1.26-.66,2.64-1.16,4.14-1.5s2.91-.51,4.24-.51c2.95,0,5.18.64,6.69,1.93,1.5,1.29,2.26,3.31,2.26,6.07v15.64h-3.53ZM1310.77,655.37c1.79,0,3.23-.5,4.31-1.5s1.63-2.4,1.63-4.21v-2.02l-2.98.13c-2.32.08-4.01.47-5.07,1.17-1.06.69-1.58,1.75-1.58,3.18,0,1.04.31,1.84.92,2.4.62.57,1.54.85,2.77.85Z"/>
    <path class="cls-1" d="M1348.96,658.73h-4.96v-14.28c0-1.79-.36-3.13-1.08-4.01-.72-.88-1.87-1.32-3.43-1.32-2.09,0-3.61.62-4.58,1.85s-1.45,3.3-1.45,6.19v11.57h-4.93v-23.22h3.86l.69,3.04h.25c.7-1.11,1.69-1.96,2.98-2.56,1.29-.6,2.72-.9,4.28-.9,5.57,0,8.36,2.83,8.36,8.5v15.14Z"/>
    <path class="cls-1" d="M1352.3,635.51h5.38l4.72,13.17c.71,1.88,1.19,3.64,1.43,5.29h.17c.12-.77.36-1.7.69-2.8.34-1.1,2.11-6.32,5.33-15.65h5.33l-9.93,26.31c-1.81,4.83-4.82,7.24-9.03,7.24-1.09,0-2.16-.12-3.19-.36v-3.9c.74.17,1.59.25,2.54.25,2.38,0,4.05-1.38,5.02-4.14l.86-2.18-9.32-23.22Z"/>
  </g>
</svg>