<?xml version="1.0" encoding="UTF-8"?>
<svg id="Capa_1" data-name="Capa 1" xmlns="http://www.w3.org/2000/svg" viewBox="0 0 1920 1080">
  <defs>
    <style>
      .cls-1 {
        fill: #f7f7f7;
      }
    </style>
  </defs>
  <path class="cls-1" d="M955.05,593.63c2.03,4.32,1.31,10.13-.93,16.36-9.65,26.92-25.39,51.3-43.16,73.71-18.19,22.94-38.84,44.25-63.21,60.49-22.76,15.17-48.49,25.71-75.39,30.52-28.73,5.13-58.31,6.03-86.33,14.78-26.95,8.41-51.32,23.84-72.69,42.29-18.45,15.93-34.88,34.24-48.52,54.45-7.08,10.49-12.89,21.51-18.77,32.69-1.3,2.49-10.92,20.48-13.18,11.68-17.04-66.6-7.33-137.09,27.05-196.61,33.98-58.81,88.86-104.14,151.25-130.22,74.36-31.09,154.48-30.17,232.8-17.17,5.95.99,9.42,3.52,11.07,7.03Z"/>
  <path class="cls-1" d="M1067.64,809.29c-.93.58-1.85,1.15-2.77,1.72-96.8,59.31-212.39,62.52-314.26,14.16-1.93-.92-4.89-2.87-4.12-4.86s4.25-1.71,6.61-1.93c46.24-4.32,87.9-22.18,123.3-52.14,41.16-34.82,76.72-78,103.28-124.91,22.48-39.72,40.16-84.21,48.13-129.27,1.46-8.23,3.61-19.01,13.95-17.83,6.83.78,13.37,5.25,18.84,9.08,14.13,9.9,26.59,22.36,38.33,34.93,2.25,2.41,4.48,4.85,6.67,7.33,22.54,25.65,40.21,55.64,51.31,87.95,4.26,12.4,7.62,25.28,7.62,38.39,0,58.46-50.39,108.17-96.89,137.38Z"/>
  <path class="cls-1" d="M906.58,201.43s-.08-.01-.11-.02c14.55-41.08,34.07-80.47,44.5-122.87,1.06-4.35-4.62-6.99-7.28-3.39-41.69,56.39-86.4,111.4-143.31,153.2-.82.6-1.68,1.22-2.69,1.38-2.39.38-4.46-2.09-4.58-4.51-.57-10.73,7.38-26.14,10.03-36.71,3.47-13.9,6.53-27.91,8.98-42.03,4.9-28.19,6.6-56.16,5.85-84.73v-.11c-.21-4.72-6.79-5.53-8.02-.97-13.96,52.09-38.55,101.01-66.74,146.75-13,21.09-28.42,40.65-41.15,61.67-11.57,19.12-25.84,38.62-47.43,46.98-6.97,2.7-14.82,4.34-19.86,9.86-2.97,3.25-4.57,7.48-6.12,11.6-6.64,17.76-11.53,40.03-22.24,55.52-7.22,10.43-16.16,20.4-25.38,29.1-9.25,8.74-20.24,17.84-32.79,21.2-6.48,1.74-28.52,1.06-28.81-9.91-1.26-1.73-2.39-3.7-4.3-4.67-10.2-5.13-37.46,55-40.99,63.38-4.7,11.14-8.79,22.78-10.63,34.77-4.29,27.89,13.83,47.88,39.02,57.86,15.47,6.13,31.36,6.77,47.46,9.83,15.78,3,30.98,6.83,47.29,5.59,1.16-.09,2.36-.21,3.35-.82,2.24-1.4,2.29-4.91.66-6.99-1.63-2.08-4.36-2.96-6.97-3.31-2.68-.36-5.75-.44-7.51-2.49-.99-1.16-1.33-2.72-1.63-4.22-1.11-5.43-2.22-10.87-3.33-16.3-.23-1.11-.45-2.29-.06-3.35.42-1.13,1.45-1.9,2.44-2.58,46.28-32.11,107.63-20.49,160.16-18.18,3.67.16,5.71-4.22,3.17-6.9-8.72-9.26-21.75-25.28-3.43-36.07,26.84-15.8,83.1.95,107.83,6.52,3.8.87,6.53-3.61,4.01-6.61-23.25-27.88.45-59.75,36.21-67.36.29-.06.55-.06.83-.11,3.68-.57,17.51-2.81,33.24-3.97,19.62-1.45,41.03,1.71,60.3,5.2,19.6,3.56,38.85,9.2,57.04,17.35,48.83,21.87,87.9,62.44,113,109.2,11.63,21.67,20.7,44.62,28.45,67.93,3.38,10.15,8.95-2.57,10.44-6.99,2.59-7.68,4.32-15.67,5.92-23.6,2.73-13.45,5.16-27.12,6.53-40.79.02-.22.04-.43.06-.65,5.49-66.92-12.72-135.12-48.59-191.64-44.91-70.76-115.97-123.35-195.59-148.7-18.8-5.98-37.86-9.72-57.22-13.35ZM553.24,494.08c-12.7-.01-21.76,5.07-32.65,10.71-3.45,1.78-7.24-1.82-5.61-5.36,5.78-12.5,24.98-33.18,36.52-28.03,1.16.51,1.96,1.55,2.28,2.78l3.54,14.84c.64,2.62-1.39,5.05-4.08,5.06ZM722.78,352.08c-15.06,31.34-33.14,46.69-68.78,54.75-2.65.61-5.31-1.55-4.98-4.23.79-6.1,8.38-9.47,11.01-14.16,5.56-9.86,5.73-18.66,17-26.21,10.42-6.98,27.08-12,40.96-15.89,3.36-.95,6.31,2.56,4.79,5.72Z"/>
</svg>